HIERARCHY
ROOT RootJoint
{
    OFFSET   0.000000   0.000000   0.000000
    CHANNELS 6 Xposition Yposition Zposition Xrotation Yrotation Zrotation
    JOINT pelvis_lowerback
    {
        OFFSET   0.000000   0.093605   0.000000
        CHANNELS 3 Xrotation Yrotation Zrotation
        JOINT lowerback_torso
        {
            OFFSET   0.000000   0.100000   0.000000
            CHANNELS 3 Xrotation Yrotation Zrotation
            JOINT torso_head
            {
                OFFSET   0.000000   0.282350   0.000000
                CHANNELS 3 Xrotation Yrotation Zrotation
                End Site
                {
                    OFFSET   0.000000   0.192650   0.000000
                }
            }
            JOINT rTorso_Clavicle
            {
                OFFSET  -0.001000   0.157500   0.000000
                CHANNELS 3 Xrotation Yrotation Zrotation
                JOINT rShoulder
                {
                    OFFSET  -0.117647   0.000000   0.000000
                    CHANNELS 3 Xrotation Yrotation Zrotation
                    JOINT rElbow
                    {
                        OFFSET  -0.245000   0.000000   0.000000
                        CHANNELS 3 Xrotation Yrotation Zrotation
                        JOINT rWrist
                        {
                            OFFSET  -0.240000   0.000000   0.000000
                            CHANNELS 3 Xrotation Yrotation Zrotation
                            End Site
                            {
                                OFFSET  -0.116353  -0.002500   0.000000
                            }
                        }
                    }
                }
            }
            JOINT lTorso_Clavicle
            {
                OFFSET   0.001000   0.157500   0.000000
                CHANNELS 3 Xrotation Yrotation Zrotation
                JOINT lShoulder
                {
                    OFFSET   0.117647   0.000000   0.000000
                    CHANNELS 3 Xrotation Yrotation Zrotation
                    JOINT lElbow
                    {
                        OFFSET   0.245000   0.000000   0.000000
                        CHANNELS 3 Xrotation Yrotation Zrotation
                        JOINT lWrist
                        {
                            OFFSET   0.240000   0.000000   0.000000
                            CHANNELS 3 Xrotation Yrotation Zrotation
                            End Site
                            {
                                OFFSET   0.116353  -0.002500   0.000000
                            }
                        }
                    }
                }
            }
        }
    }
    JOINT rHip
    {
        OFFSET  -0.100000  -0.051395   0.000000
        CHANNELS 3 Xrotation Yrotation Zrotation
        JOINT rKnee
        {
            OFFSET   0.000000  -0.410000   0.000000
            CHANNELS 3 Xrotation Yrotation Zrotation
            JOINT rAnkle
            {
                OFFSET   0.000000  -0.390000   0.000000
                CHANNELS 3 Xrotation Yrotation Zrotation
                JOINT rToeJoint
                {
                    OFFSET   0.000000  -0.050000   0.130000
                    CHANNELS 3 Xrotation Yrotation Zrotation
                    End Site
                    {
                        OFFSET  -0.010000   0.002000   0.060000
                    }
                }
            }
        }
    }
    JOINT lHip
    {
        OFFSET   0.100000  -0.051395   0.000000
        CHANNELS 3 Xrotation Yrotation Zrotation
        JOINT lKnee
        {
            OFFSET   0.000000  -0.410000   0.000000
            CHANNELS 3 Xrotation Yrotation Zrotation
            JOINT lAnkle
            {
                OFFSET   0.000000  -0.390000   0.000000
                CHANNELS 3 Xrotation Yrotation Zrotation
                JOINT lToeJoint
                {
                    OFFSET   0.000000  -0.050000   0.130000
                    CHANNELS 3 Xrotation Yrotation Zrotation
                    End Site
                    {
                        OFFSET   0.010000   0.002000   0.060000
                    }
                }
            }
        }
    }
}
MOTION
Frames: 10
Frame Time:   0.008333
 -2.376719   0.925631   3.975860   0.000000   0.000000   0.000000   0.000000   0.000000   0.000000   0.000000   0.000000   0.000000   0.000000   0.000000   0.000000   0.000000   0.000000   0.000000   0.000000   0.000000   0.000000   0.000000   0.000000   0.000000   0.000000   0.000000   0.000000   0.000000   0.000000   0.000000   0.000000   0.000000   0.000000   0.000000   0.000000   0.000000   0.000000   0.000000   0.000000   0.000000   0.000000   0.000000   0.000000   0.000000   0.000000   0.000000   0.000000   0.000000   0.000000   0.000000   0.000000   0.000000   0.000000   0.000000   0.000000   0.000000   0.000000   0.000000   0.000000   0.000000   0.000000   0.000000   0.000000
 -2.376199   0.926103   3.976276  -0.818912   0.154872   0.323564   0.786471   0.062862  -0.277273   0.220185  -0.154404  -0.074700   0.033836   0.051072  -0.014392   0.071777  -0.303377   0.248005   0.437821   0.168587   2.177491   0.022573   1.076652  -0.006742   0.129622  -0.534598  -2.568894   0.057837   0.238539  -0.081696   0.632873  -0.214548  -2.214144   0.030071  -1.471277   0.011635   0.196163   0.662164   2.460004   0.481645  -0.407922  -0.595330   1.660396   0.003893  -0.003695  -1.481890  -0.658929   0.076554  -0.031049  -0.000054   0.000246   0.708209  -0.357716  -0.271770   0.711351  -0.000318  -0.001232  -0.721218   0.165799   0.323008   0.163427  -0.000530  -0.000046
 -2.375497   0.926928   3.976948  -1.708776   0.389506   0.676608   1.505618   0.096092  -0.535673   0.506810  -0.340821  -0.158165   0.109620   0.102069  -0.039287   0.147049  -0.552495   1.184357   0.856199   0.405900   4.908999   0.052051   2.128919  -0.011250   0.284028  -0.721105  -4.406609   0.118382   0.377814  -0.846784   1.237119  -0.551288  -4.972013   0.069291  -2.917092   0.019654   0.427371   0.823348   4.185226   1.046896  -0.833429  -1.393805   3.482808   0.010014  -0.006312  -2.856168  -1.291261   0.126680  -0.084512  -0.000231   0.000576   1.480048  -0.704309  -0.464848   1.512055  -0.001346  -0.001648  -1.395715   0.316563   0.625643   0.272956  -0.000858   0.000015
 -2.374721   0.927711   3.977781  -2.561372   0.654521   1.011766   2.134974   0.110074  -0.754729   0.757402  -0.535919  -0.221525   0.180761   0.150440  -0.063751   0.221251  -0.749544   2.542111   1.250908   0.690508   7.998946   0.080980   3.123824  -0.013639   0.437845  -0.771976  -5.448603   0.174397   0.447972  -2.036859   1.806651  -0.964203  -8.081976   0.107587  -4.287399   0.024135   0.659247   0.786168   5.129290   1.620204  -1.247669  -2.297056   5.244342   0.016520  -0.008116  -4.134180  -1.885217   0.157074  -0.124300  -0.000378   0.000715   2.228395  -1.021658  -0.534576   2.288360  -0.002797  -0.001450  -2.025338   0.455468   0.910102   0.367999  -0.001130   0.000105
 -2.373917   0.928170   3.978715  -3.359924   0.921367   1.322820   2.687951   0.115424  -0.938624   0.963059  -0.727380  -0.262346   0.239684   0.195894  -0.085810   0.295408  -0.911369   4.141394   1.622209   1.011705  11.330975   0.105959   4.057912  -0.014644   0.585838  -0.767128  -5.903921   0.227061   0.480938  -3.470198   2.341912  -1.431930 -11.426575   0.140375  -5.575195   0.026201   0.883487   0.670621   5.503353   2.177877  -1.648520  -3.266877   6.908481   0.022537  -0.009681  -5.326427  -2.441757   0.171414  -0.163163  -0.000529   0.000804   2.939206  -1.311515  -0.490120   3.020081  -0.004377  -0.000992  -2.614062   0.583723   1.177762   0.449472  -0.001331   0.000183
 -2.373151   0.928086   3.979706  -4.105532   1.175590   1.613417   3.179382   0.117072  -1.099658   1.133142  -0.910293  -0.297589   0.287568   0.238556  -0.101543   0.370503  -1.049414   5.869180   1.969931   1.362979  14.830843   0.125615   4.931777  -0.014835   0.725758  -0.740712  -5.954370   0.279752   0.493875  -5.072832   2.820138  -1.919607 -14.785715   0.165164  -6.781702   0.026500   1.096275   0.521024   5.421994   2.710928  -2.035136  -4.279601   8.472134   0.027596  -0.011206  -6.439773  -2.962649   0.172540  -0.203417  -0.000688   0.000871   3.611362  -1.576720  -0.348722   3.706243  -0.005918  -0.000467  -3.164608   0.702022   1.429531   0.519396  -0.001464   0.000237
 -2.372469   0.927291   3.980719  -4.802243   1.411563   1.885725   3.621615   0.117732  -1.247118   1.277816  -1.082099  -0.334157   0.326915   0.278440  -0.113526   0.447155  -1.171342   7.645925   2.293476   1.739646  18.445382   0.139753   5.747547  -0.014590   0.856862  -0.709516  -5.738395   0.334147   0.498313  -6.758428   3.240268  -2.408971 -18.057151   0.181599  -7.909396   0.025689   1.295485   0.362043   5.032824   3.215306  -2.406784  -5.315844   9.938556   0.031504  -0.012679  -7.479849  -3.449662   0.162890  -0.244501  -0.000840   0.000921   4.245574  -1.819745  -0.126296   4.349178  -0.007314   0.000042  -3.679335   0.811090   1.666269   0.579949  -0.001541   0.000269
 -2.371926   0.925135   3.981165  -5.021896   1.494316   2.051354   3.665559   0.142471  -1.264766   1.358542  -1.195948  -0.426915   0.255821   0.245318  -0.144823   0.582179  -1.182980   8.786627   2.675316   2.132904  22.131410   0.148891   6.603335  -0.015680   0.894079  -0.667557  -4.565996   0.567675   0.504260  -7.632236   3.697755  -2.849087 -21.479521   0.190600  -9.081545   0.027806   1.389303   0.132773   3.717313   3.098274  -2.869435  -6.185779  11.222593   0.031833  -0.016578  -8.247553  -4.067440   0.292345  -0.106969   0.000015  -0.000514   4.500469  -1.944894   0.141363   4.403555  -0.006050   0.000043  -3.822273   0.916547   1.871803   0.698153  -0.001875   0.000318
 -2.371455   0.921829   3.981297  -5.179586   1.534045   2.184097   3.746432   0.164261  -1.265001   1.421485  -1.289537  -0.496847   0.172552   0.209350  -0.180823   0.694900  -1.156185   9.717637   3.000610   2.545902  25.491468   0.150599   7.413221  -0.016486   0.935996  -0.574439  -3.390721   0.781306   0.498053  -8.266742   4.100443  -3.286404 -24.563320   0.189539 -10.179999   0.029311   1.481308  -0.124560   2.437785   2.886693  -3.306640  -6.960246  12.355032   0.030386  -0.019213  -8.964367  -4.648145   0.404668   0.032327   0.000620  -0.001675   4.687665  -2.062056   0.381098   4.351559  -0.004674   0.000045  -3.958785   1.014081   2.064060   0.817689  -0.002076   0.000314
 -2.371020   0.917474   3.981251  -5.317739   1.553547   2.297827   3.859972   0.184780  -1.254170   1.497453  -1.372326  -0.545082   0.098441   0.174992  -0.216045   0.786872  -1.109758  10.496003   3.274357   2.962465  28.562692   0.147370   8.176081  -0.016933   0.979622  -0.450648  -2.378776   0.969143   0.478540  -8.738973   4.449149  -3.719577 -27.354820   0.182313 -11.209382   0.030091   1.568777  -0.389670   1.361906   2.642597  -3.710135  -7.658145  13.382282   0.028097  -0.020658  -9.634962  -5.190817   0.502219   0.157562   0.000976  -0.002431   4.839737  -2.172214   0.580951   4.277111  -0.003537   0.000065  -4.087898   1.104127   2.243599   0.925289  -0.002113   0.000284
